<svg width="295" height="295" viewBox="0 0 295 295" fill="none" xmlns="http://www.w3.org/2000/svg">
<circle cx="147.5" cy="147.5" r="147.5" fill="#322A47"/>
<path d="M144.919 98.3418L142.084 114.821C142.084 114.821 132.57 114.821 113.542 114.821C102.995 114.821 94.0083 115.854 86.5815 117.919C79.1548 119.985 73.2661 123.303 68.9155 127.873C64.6089 132.443 61.7964 138.376 60.478 145.671C59.0718 153.317 59.5332 159.426 61.8623 163.996C64.1914 168.522 68.6738 171.752 75.3096 173.686C81.9453 175.62 91.064 176.586 102.666 176.586C125.209 176.586 134.702 176.586 131.142 176.586L128.242 193C128.242 193 112.18 193 80.0557 193C65.29 193 54.4795 188.847 47.624 180.542C40.7686 172.236 38.5933 160.612 41.0981 145.671C42.7681 136.882 46.3276 128.928 51.7769 121.809C57.2261 114.689 63.9058 108.999 71.8159 104.736C79.7261 100.473 88.0317 98.3418 96.7329 98.3418C136.723 98.3418 152.785 98.3418 144.919 98.3418ZM122.902 131.499C117.453 131.499 112.487 133.388 108.005 137.167C103.566 140.947 100.798 145.627 99.6992 151.208C98.8643 156.789 99.9849 161.469 103.061 165.249C106.181 169.028 110.466 170.917 115.915 170.917C121.364 170.917 126.308 169.028 130.747 165.249C135.229 161.469 138.02 156.789 139.118 151.208C139.997 145.627 138.876 140.947 135.756 137.167C132.636 133.388 128.352 131.499 122.902 131.499ZM254.672 98.3418L251.772 114.821H224.35C217.934 114.821 211.892 115.239 206.223 116.074C200.598 116.909 195.522 118.447 190.996 120.688C186.513 122.885 182.778 126.005 179.79 130.048C176.801 134.091 174.714 139.299 173.527 145.671C172.473 151.735 172.539 156.767 173.725 160.766C174.956 164.765 177.241 167.929 180.581 170.258C183.964 172.587 188.403 174.235 193.896 175.202C199.389 176.125 205.893 176.586 213.408 176.586H240.896L237.995 193H193.105C178.339 193 167.529 188.847 160.673 180.542C153.818 172.236 151.643 160.612 154.147 145.671C155.817 136.882 159.377 128.928 164.826 121.809C170.275 114.689 176.955 108.999 184.865 104.736C192.775 100.473 201.081 98.3418 209.782 98.3418H254.672Z" fill="#E0D9FF"/>
</svg>
