<svg width="156" height="156" viewBox="0 0 156 156" fill="none" xmlns="http://www.w3.org/2000/svg">
<g clip-path="url(#clip0_7_64)">
<path d="M100.464 114.785C88.5768 113.474 73.4448 106.61 60.1536 96.5328L57.1272 94.224L55.692 94.8792C52.9464 96.096 50.4504 96.408 43.1496 96.408H36.192V84.084V71.76L34.6632 69.0144C31.8552 64.0848 29.9832 58.2192 29.952 54.3192C29.952 48.8592 32.76 44.46 37.5648 42.4632C38.844 41.9328 40.1544 41.496 40.4664 41.496C40.7784 41.496 40.2168 41.8392 39.2184 42.2448C35.6304 43.7424 33.9144 45.3336 32.3232 48.672C31.3872 50.6064 31.356 50.8872 31.3872 54.444C31.4184 58.4688 32.0112 60.9648 34.0704 65.52C39.5928 77.8128 54.444 92.8512 70.7928 102.742C82.7424 109.918 94.1616 114.005 103.584 114.41C109.73 114.66 113.537 113.474 117.125 110.167L118.685 108.732L117.655 110.042C116.438 111.634 115.409 112.414 113.194 113.381C110.011 114.785 105.206 115.315 100.464 114.785ZM50.544 88.764C50.544 88.5768 44.7408 82.68 44.5536 82.68C44.4912 82.68 44.4288 84.084 44.3976 85.8L44.3352 88.92H47.424C49.14 88.92 50.544 88.8576 50.544 88.764Z" fill="#B6E72B"/>
<path d="M98.3424 111.665C85.2696 109.231 68.7648 100.37 55.5048 88.7016C45.084 79.5288 37.5648 69.4824 34.5696 60.7464C33.696 58.2192 33.5712 57.4392 33.5712 54.444C33.54 51.3864 33.6336 50.856 34.32 49.452C38.22 41.7456 50.076 41.0592 66.1128 47.6424C69.1704 48.8904 76.7832 52.6344 77.22 53.1024C77.4072 53.2584 76.4088 52.8528 75.036 52.1664C63.5232 46.4568 52.5408 44.46 46.644 47.0808C41.808 49.2024 40.2168 54.444 42.4008 61.0584C45.4896 70.4184 54.2256 81.0576 66.7992 90.8544C72.6024 95.3784 78.2496 98.904 84.552 101.993C89.6688 104.489 90.4176 104.801 94.3488 106.049C99.5904 107.734 101.494 108.046 106.392 108.077C110.386 108.077 111.134 108.014 112.694 107.39C114.91 106.486 117.062 104.458 117.718 102.617L118.186 101.244L118.217 102.398C118.248 104.021 117.187 106.673 115.877 108.202C112.726 111.883 106.361 113.162 98.3424 111.665Z" fill="#B6E72B"/>
<path d="M75.6601 94.3488C73.9441 93.2256 71.3233 91.416 69.8569 90.324C67.1737 88.3272 67.1737 88.296 66.9553 86.6736C66.8617 85.7688 66.7681 84.2088 66.7681 83.2416V81.432H70.6681H74.5681V83.8032C74.5681 86.8296 75.1297 88.0464 76.8769 88.92C79.1545 90.012 81.6505 89.544 82.8361 87.7968C83.4289 86.9544 83.4601 86.2992 83.4601 78.78V70.668L81.0577 70.5744L78.6241 70.4808V66.924V63.336H85.1761H91.7593L91.6657 76.0656L91.5721 88.764L90.7609 90.324C88.7953 94.0368 84.8329 96.4392 80.6833 96.3768C78.8737 96.3768 78.6241 96.252 75.6601 94.3488Z" fill="#B6E72B"/>
<path d="M108.108 96.2208C99.7152 94.9104 94.224 88.5144 94.224 80.028C94.224 75.192 95.6904 71.4792 98.8104 68.3592C101.462 65.7384 104.021 64.428 107.858 63.7416C110.448 63.2736 110.885 63.2736 113.443 63.7416C119.309 64.8336 123.49 68.2344 124.987 73.164L125.393 74.568H121.368C119.09 74.568 117.312 74.4432 117.312 74.2872C117.312 74.1312 116.938 73.5384 116.47 72.9768C114.005 70.0752 108.077 70.044 105.05 72.9456C102.492 75.348 101.743 80.6832 103.397 84.5832C104.052 86.1744 106.298 88.1088 108.014 88.5768C109.918 89.1072 113.381 88.8888 114.91 88.1712C115.97 87.6408 117.624 85.7688 117.624 85.1136C117.624 84.9576 116.095 84.864 114.192 84.864H110.76V81.432V78H118.404H126.048V80.4336C126.048 86.3304 123.583 91.5096 119.527 94.0368C116.875 95.7216 111.509 96.7512 108.108 96.2208Z" fill="#B6E72B"/>
<path d="M61.4328 83.46C57.3456 79.6224 56.5656 78.7176 56.3472 77.376C55.9416 74.7552 53.7264 72.072 51.3864 71.3856C50.0448 70.98 49.1088 69.7944 46.9248 65.7696L45.6144 63.336H47.6736C57.7512 63.3672 64.584 70.1376 64.584 80.028C64.584 81.4008 64.3968 83.2104 64.1784 84.084L63.7728 85.6128L61.4328 83.46Z" fill="#B6E72B"/>
</g>
<defs>
<clipPath id="clip0_7_64">
<rect width="156" height="156" fill="white"/>
</clipPath>
</defs>
</svg>
